# xmcd
#
# Track frame offsets:
#  150
#  15729
#  36713
#  56880
#  85827
#  92942
#  116830
#  139850
#  150652
#  163060
#  178953
#  193375
#  208172
#  226054
#  244023
#  263383
#  287276
#
# Disc length: 4120 seconds
#
# Revision: 0
# Processed by: cddbd v1.4PL0 Copyright (c) Steve Scherf et al.
# Submitted via: AltoMP3_Maker 3.0
#
DISCID=f7101611
DTITLE=Lloyd Thayer - Look Ma No Bands!
DYEAR=1900
DGENRE=
TTITLE0=Ceolacanth Blues
TTITLE1=In Your Way
TTITLE2=Living All Over Me Too
TTITLE3=You Did Not Mean It
TTITLE4=Rain Date
TTITLE5=God Is Watching a Movie
TTITLE6=Going Home
TTITLE7=Ossification Blues
TTITLE8=Right Than Happy
TTITLE9=Making Good Time
TTITLE10=Living All Over Me
TTITLE11=You Could Do A Lot Worse
TTITLE12=Sometimes We Weep
TTITLE13=If You've Found Yourself
TTITLE14=Same Mistake Different Day
TTITLE15=Gotta Have Patience
TTITLE16=Blues For The Happy Girl
EXTD=
EXTT0=
EXTT1=
EXTT2=
EXTT3=
EXTT4=
EXTT5=
EXTT6=
EXTT7=
EXTT8=
EXTT9=
EXTT10=
EXTT11=
EXTT12=
EXTT13=
EXTT14=
EXTT15=
EXTT16=
PLAYORDER=
